<svg xmlns="http://www.w3.org/2000/svg" viewBox="0 0 80 64" role="img" aria-hidden="true">
  <defs>
    <linearGradient id="hs-grad" x1="0" y1="32" x2="80" y2="32" gradientUnits="userSpaceOnUse">
      <stop offset="0" stop-color="#FFD080"/>
      <stop offset="0.45" stop-color="#FF8C5E"/>
      <stop offset="1" stop-color="#FF6B35"/>
    </linearGradient>
  </defs>
  <path fill="url(#hs-grad)" d="M28 18c-1.2 0-2.2.6-2.8 1.5l-3.2 4.8c-.6.9-1.6 1.4-2.7 1.4H14c-2.2 0-4 1.8-4 4v2c0 1.1.9 2 2 2h1.5c.8 0 1.5.7 1.5 1.5v8c0 1.7 1.3 3 3 3h4.5c1.2 0 2.2-1 2.2-2.2v-2.3l6.8 3.9c1.4.8 2.2 2.3 2.2 3.9v5.7c0 1.1.9 2 2 2h3c1.1 0 2-.9 2-2v-4.8l8.5-4.9c1-.6 1.6-1.7 1.6-2.9v-3.6c0-1.2-.6-2.3-1.6-2.9l-5.4-3.1c-1.3-.8-1.8-2.4-1.1-3.8.4-.8 1.2-1.3 2.1-1.3h2.6c1.1 0 2-.9 2-2 0-.9-.6-1.7-1.4-2l-7.2-2.7c-.8-.3-1.7-.2-2.4.3L32 28.5c-.9.8-2.2 1-3.3.5-1-.5-1.7-1.5-1.7-2.7 0-1.7 1.3-3 3-3h4.8c1.2 0 2.3.6 2.9 1.6.4.7 1.2 1.1 2 1.1h6.4c1.7 0 3 1.3 3 3 0 1-.5 1.9-1.3 2.5-1.2.9-2.8 1.1-4.1.3l-2-1.4c-.7-.5-1.6-.6-2.4-.3l-2.4 1c-.7.3-1.5.1-2-.5l-1.6-1.9c-.5-.6-1.3-.9-2.1-.7l-2.2.6V26c0-1.7-1.3-3-3-3h-3.6c-2 0-3.6 1.6-3.6 3.6V28l-1.6-1.2c-.8-.6-1.9-.6-2.7 0l-2.4 1.8c-.6.5-1.4.6-2.1.4-1-.4-1.7-1.5-1.7-2.7 0-1.7 1.3-3 3-3h1.6z"/>
  <path fill="url(#hs-grad)" d="M52 18c1.2 0 2.2.6 2.8 1.5l3.2 4.8c.6.9 1.6 1.4 2.7 1.4H66c2.2 0 4 1.8 4 4v2c0 1.1-.9 2-2 2h-1.5c-.8 0-1.5.7-1.5 1.5v8c0 1.7-1.3 3-3 3h-4.5c-1.2 0-2.2-1-2.2-2.2v-2.3l-6.8 3.9c-1.4.8-2.2 2.3-2.2 3.9v5.7c0 1.1-.9 2-2 2h-3c-1.1 0-2-.9-2-2v-4.8l-8.5-4.9c-1-.6-1.6-1.7-1.6-2.9v-3.6c0-1.2.6-2.3 1.6-2.9l5.4-3.1c1.3-.8 1.8-2.4 1.1-3.8-.4-.8-1.2-1.3-2.1-1.3h-2.6c-1.1 0-2-.9-2-2 0-.9.6-1.7 1.4-2l7.2-2.7c.8-.3 1.7-.2 2.4.3L48 28.5c.9.8 2.2 1 3.3.5 1-.5 1.7-1.5 1.7-2.7 0-1.7-1.3-3-3-3h-4.8c-1.2 0-2.3.6-2.9 1.6-.4.7-1.2 1.1-2 1.1h-6.4c-1.7 0-3 1.3-3 3 0 1 .5 1.9 1.3 2.5 1.2.9 2.8 1.1 4.1.3l2-1.4c.7-.5 1.6-.6 2.4-.3l2.4 1c.7.3 1.5.1 2-.5l1.6-1.9c.5-.6 1.3-.9 2.1-.7l2.2.6V26c0-1.7 1.3-3 3-3h3.6c2 0 3.6 1.6 3.6 3.6V28l1.6-1.2c.8-.6 1.9-.6 2.7 0l2.4 1.8c.6.5 1.4.6 2.1.4 1-.4 1.7-1.5 1.7-2.7 0-1.7-1.3-3-3-3H52z"/>
</svg>
